# xmcd
#
# Track frame offsets:
#	151
#	12772
#	22411
#	32646
#	41347
#	50374
#	60903
#	69412
#	83163
#	92570
#	102005
#	111766
#	123701
#	136278
#
# Disc length: 1966 seconds
#
# Revision: 0
# Processed by: cddbd v1.4PL0 Copyright (c) Steve Scherf et al.
# Submitted via: dBpowerAMP V4.0
#
DISCID=ae07ac0e
DTITLE=Buddy Holly - Peggy Sue
DYEAR=1900
DGENRE=Rock and Roll
TTITLE0=True Love Ways
TTITLE1=Heartbeat
TTITLE2=I'm Gonna Set My Foot Down
TTITLE3=It's Not My Fault
TTITLE4=Learning The Game
TTITLE5=Listen To Me
TTITLE6=Little Baby
TTITLE7=Love Is Strange
TTITLE8=Love Me
TTITLE9=Love's Made A Fool Of You
TTITLE10=Midnight Shift
TTITLE11=Moondreams
TTITLE12=Raining In My Heart
TTITLE13=Peggy Sue
EXTD=Buddy Holly (Peggy Sue)
EXTT0=
EXTT1=
EXTT2=
EXTT3=
EXTT4=
EXTT5=
EXTT6=
EXTT7=
EXTT8=
EXTT9=
EXTT10=
EXTT11=
EXTT12=
EXTT13=
PLAYORDER=
